<?xml version="1.0" encoding="UTF-8" standalone="no"?>
<!-- Created with Inkscape (http://www.inkscape.org/) -->

<svg
   xmlns:dc="http://purl.org/dc/elements/1.1/"
   xmlns:cc="http://creativecommons.org/ns#"
   xmlns:rdf="http://www.w3.org/1999/02/22-rdf-syntax-ns#"
   xmlns:svg="http://www.w3.org/2000/svg"
   xmlns="http://www.w3.org/2000/svg"
   xmlns:sodipodi="http://sodipodi.sourceforge.net/DTD/sodipodi-0.dtd"
   xmlns:inkscape="http://www.inkscape.org/namespaces/inkscape"
   width="71.395569mm"
   height="59.782871mm"
   viewBox="0 0 71.395569 59.782871"
   version="1.1"
   id="svg8"
   sodipodi:docname="flexible.svg"
   inkscape:version="0.92.5 (2060ec1f9f, 2020-04-08)">
  <defs
     id="defs2" />
  <sodipodi:namedview
     id="base"
     pagecolor="#ffffff"
     bordercolor="#666666"
     borderopacity="1.0"
     inkscape:pageopacity="0.0"
     inkscape:pageshadow="2"
     inkscape:zoom="1.4142136"
     inkscape:cx="-108.31402"
     inkscape:cy="219.4055"
     inkscape:document-units="mm"
     inkscape:current-layer="layer1"
     showgrid="false"
     inkscape:window-width="2506"
     inkscape:window-height="1376"
     inkscape:window-x="2614"
     inkscape:window-y="27"
     inkscape:window-maximized="1"
     fit-margin-top="0"
     fit-margin-left="0"
     fit-margin-right="0"
     fit-margin-bottom="0" />
  <metadata
     id="metadata5">
    <rdf:RDF>
      <cc:Work
         rdf:about="">
        <dc:format>image/svg+xml</dc:format>
        <dc:type
           rdf:resource="http://purl.org/dc/dcmitype/StillImage" />
        <dc:title></dc:title>
      </cc:Work>
    </rdf:RDF>
  </metadata>
  <g
     inkscape:label="Layer 1"
     inkscape:groupmode="layer"
     id="layer1"
     transform="translate(-41.004574,-71.306739)">
    <path
       id="path832"
       style="fill:none;stroke:#000000;stroke-width:1;stroke-linecap:butt;stroke-linejoin:miter;stroke-miterlimit:4;stroke-dasharray:none;stroke-opacity:1"
       d="m 78.291723,110.49724 -23.129465,-0.0287 c -5.504381,-0.0626 -9.93361,4.30263 -9.97895,9.76952 -1.68e-4,5.46707 4.392566,9.86896 9.937995,9.8515 l 23.17042,-0.0288 m 0,-19.56352 23.129467,-0.0287 c 5.50438,-0.0626 9.93361,4.30263 9.97895,9.76949 1.7e-4,5.46705 -4.39257,9.86894 -9.938,9.85148 l -23.170417,-0.0288"
       inkscape:connector-curvature="0"
       sodipodi:nodetypes="cccccccccc" />
    <path
       inkscape:connector-curvature="0"
       style="opacity:1;fill:#e5e5e5;fill-opacity:1;stroke:#000000;stroke-width:2;stroke-linecap:round;stroke-linejoin:round;stroke-miterlimit:4;stroke-dasharray:none;stroke-dashoffset:0;stroke-opacity:1;paint-order:stroke fill markers"
       d="m 52.765253,72.306698 0.0026,32.718412 0.0011,5.70508 c 0.766334,-0.17875 1.567207,-0.27088 2.393135,-0.26148 l 1.617472,0.002 -0.0057,-5.44566 0.0181,-17.393767 c 0,0 0.269155,-13.81403 -4.026627,-15.324645 z"
       id="rect939" />
    <path
       inkscape:connector-curvature="0"
       style="fill:#e5e5e5;fill-opacity:1;stroke:#000000;stroke-width:1;stroke-linecap:butt;stroke-linejoin:round;stroke-miterlimit:4;stroke-dasharray:none;stroke-opacity:1"
       d="m 86.329096,90.483366 c 0,0 -11.29556,6.287664 -14.588257,9.590624 l -10.929049,10.40144 9.326047,0.0119 6.011518,-5.82032 c 3.434908,-3.15482 10.179741,-14.183629 10.179741,-14.183629 z"
       id="path876" />
    <path
       sodipodi:nodetypes="cccccccccc"
       inkscape:connector-curvature="0"
       d="m 78.291723,110.49724 -23.129465,-0.0287 c -5.504381,-0.0626 -9.93361,4.30263 -9.97895,9.76952 -1.68e-4,5.46707 4.392566,9.86896 9.937995,9.8515 l 23.17042,-0.0288 m 0,-19.56352 23.129467,-0.0287 c 5.50438,-0.0626 9.93361,4.30263 9.97895,9.76949 1.7e-4,5.46705 -4.39257,9.86894 -9.938,9.85148 l -23.170417,-0.0288"
       style="fill:#e83030;fill-opacity:1;stroke:#000000;stroke-width:2;stroke-linecap:butt;stroke-linejoin:miter;stroke-miterlimit:4;stroke-dasharray:none;stroke-opacity:1"
       id="path835" />
    <g
       id="g862"
       transform="translate(0.9955468)"
       style="fill:#ffffff;fill-opacity:1">
      <path
         d="m 57.168895,120.27875 a 3.4962797,3.4962797 0 0 1 -3.489003,3.49627 3.4962797,3.4962797 0 0 1 -3.503526,-3.48172 3.4962797,3.4962797 0 0 1 3.474419,-3.51076 3.4962797,3.4962797 0 0 1 3.517989,3.4671"
         sodipodi:open="true"
         sodipodi:end="6.2748601"
         sodipodi:start="0"
         sodipodi:ry="3.4962797"
         sodipodi:rx="3.4962797"
         sodipodi:cy="120.27875"
         sodipodi:cx="53.672615"
         sodipodi:type="arc"
         id="path856"
         style="opacity:1;fill:#ffffff;fill-opacity:1;stroke:#000000;stroke-width:2;stroke-linecap:round;stroke-linejoin:miter;stroke-miterlimit:4;stroke-dasharray:none;stroke-dashoffset:0;stroke-opacity:1;paint-order:stroke fill markers" />
      <path
         style="opacity:1;fill:#ffffff;fill-opacity:1;stroke:#000000;stroke-width:2;stroke-linecap:round;stroke-linejoin:miter;stroke-miterlimit:4;stroke-dasharray:none;stroke-dashoffset:0;stroke-opacity:1;paint-order:stroke fill markers"
         id="path858"
         sodipodi:type="arc"
         sodipodi:cx="100.91964"
         sodipodi:cy="120.27875"
         sodipodi:rx="3.4962797"
         sodipodi:ry="3.4962797"
         sodipodi:start="0"
         sodipodi:end="6.2748601"
         sodipodi:open="true"
         d="m 104.41592,120.27875 a 3.4962797,3.4962797 0 0 1 -3.489,3.49627 3.4962797,3.4962797 0 0 1 -3.50353,-3.48172 3.4962797,3.4962797 0 0 1 3.47442,-3.51076 3.4962797,3.4962797 0 0 1 3.51799,3.4671" />
    </g>
    <path
       style="fill:none;stroke:#000000;stroke-width:1;stroke-linecap:round;stroke-linejoin:round;stroke-miterlimit:4;stroke-dasharray:none;stroke-opacity:1"
       d="m 91.912103,77.381398 -3.85042,3.247345 4.80953,1.329118 m 0.88728,4.233849 3.6034,-2.99258 -4.49068,-1.241269 m 0.88728,4.233849 -3.8194,3.171902 4.75991,1.315164 m 0.89711,4.280877 3.6437,-3.026172 -4.54081,-1.254705 m 0.89711,4.280877 -3.7791,3.138826 4.69635,1.237649 m 0,0 4.669487,1.230932 -3.799507,3.20447 1.24152,5.94331"
       id="path920"
       inkscape:connector-curvature="0"
       sodipodi:nodetypes="ccccccccccccccccccc" />
    <path
       style="fill:none;stroke:#f07979;stroke-width:2;stroke-linecap:round;stroke-linejoin:miter;stroke-miterlimit:4;stroke-dasharray:none;stroke-opacity:1"
       d="m 62.407434,126.3484 h 20.780207 m 4.677216,0 h 5.679476"
       id="path929"
       inkscape:connector-curvature="0"
       sodipodi:nodetypes="cccc" />
    <path
       style="fill:#ffffff;fill-opacity:1;stroke:#000000;stroke-width:1;stroke-linecap:butt;stroke-linejoin:miter;stroke-miterlimit:4;stroke-dasharray:none;stroke-opacity:1"
       d="M 69.893935,95.058294 41.548104,78.692821 c -0.83966,4.475563 11.25848,11.149522 11.25848,11.149522 l 15.090866,8.673963 z"
       id="path933"
       inkscape:connector-curvature="0"
       sodipodi:nodetypes="ccccc" />
    <path
       style="opacity:1;fill:#000000;fill-opacity:1;stroke:#000000;stroke-width:0.3214649;stroke-linecap:round;stroke-linejoin:round;stroke-miterlimit:4;stroke-dasharray:none;stroke-dashoffset:0;stroke-opacity:1;paint-order:stroke fill markers"
       id="path942"
       sodipodi:type="arc"
       sodipodi:cx="54.853809"
       sodipodi:cy="88.593391"
       sodipodi:rx="1.04799"
       sodipodi:ry="1.04799"
       sodipodi:start="0"
       sodipodi:end="6.2748601"
       sodipodi:open="true"
       d="m 55.901799,88.593391 a 1.04799,1.04799 0 0 1 -1.045808,1.047988 1.04799,1.04799 0 0 1 -1.050163,-1.043625 1.04799,1.04799 0 0 1 1.041438,-1.052332 1.04799,1.04799 0 0 1 1.054497,1.039245" />
  </g>
</svg>
